<svg xmlns="http://www.w3.org/2000/svg" viewBox="0 0 200 200">
  <rect width="200" height="200" fill="#ff3c3c"/>
  <g transform="translate(10, 64) scale(0.9)">
    <rect width="200" height="80" rx="12" fill="transparent"/>
    <g transform="translate(27 20)">
      <g clip-path="url(#a)">
        <path d="M122.692 35.49c-.004.002.133-.096 0 0zm22.941-5.936H125.83c-2.736 0-4.055.446-5.015 1.258-.335.244-1.96 1.582-3.717 2.849-.312.114-.347-.11-.347-.114 0 0 .019-1.194.002-1.94-.03-1.46-.758-2.052-2.717-2.052H93.87v3.654c0 .719.584 1.304 1.302 1.304 0 0 14.63.008 15.271-.003 1.777-.027 1.732 1.203 1.732 1.203v1.77c0 1.053.863 2.506 2.515 2.508 1.666.002 2.671-.737 2.671-.737 4.047-2.862 5.1-3.604 5.331-3.765l.007-.008c1.322-.987 1.717-.951 2.818-.97h18.816c.717 0 1.3-.584 1.3-1.303v-3.654z" fill="#7800C8"/>
        <path d="m9.687 20.325-.069.001c-.287.013-.614.024-.96.024-.883 0-1.243-.261-1.243-.899v-6.88h3.404V8.32H7.415V2.337h-4.94v5.982H0v4.252h2.474v8.394c0 3.328 2.413 3.776 4.775 3.776 1.302 0 3.406-.199 3.494-.206l.214-.02V21.56c-.018-.427-.305-1.235-1.27-1.235zM25.094 14.506c.422-1.477 1.677-2.416 3.274-2.416 1.569 0 2.84.98 3.185 2.416h-6.459zm3.274-6.6c-4.878 0-8.418 3.583-8.418 8.52 0 4.938 3.57 8.522 8.487 8.522 3.607 0 6.394-1.62 7.847-4.56l.14-.283-5-.87-.086.121c-.575.816-1.634 1.303-2.833 1.303-1.656 0-2.989-1.093-3.328-2.69h11.678v-.408c0-7.118-4.385-9.655-8.487-9.655zM47.688 7.906a6.419 6.419 0 0 0-4.527 1.84c.004-.05.007-.1.009-.152-.048-1.01-.861-1.276-1.287-1.275h-3.54v16.217h4.941V14.174c.875-1.056 1.972-1.637 3.098-1.637 1.53 0 2.445.966 2.445 2.583v9.417h4.941v-10.55c0-3.695-2.386-6.08-6.08-6.08zM113.461 7.906c-2.087 0-3.898.914-5.26 2.648-.977-1.71-2.768-2.648-5.087-2.648-1.631 0-3.232.67-4.407 1.82a3.24 3.24 0 0 0 0-.198c-.162-1.171-1.158-1.21-1.294-1.21H93.87v16.218h4.94V14.174c.875-1.056 1.949-1.637 3.031-1.637 1.488 0 2.377.941 2.377 2.515v9.485h4.94V14.174c.874-1.056 1.948-1.637 3.031-1.637.557 0 2.377.181 2.377 2.515v9.485h4.942v-10.55c-.001-3.695-2.375-6.08-6.047-6.08zM124.345 0c-1.704 0-3.088 1.4-3.088 3.123a3.055 3.055 0 0 0 3.088 3.09c1.751 0 3.124-1.357 3.124-3.09A3.127 3.127 0 0 0 124.345 0zM127.029 9.594c-.049-1.01-.861-1.275-1.287-1.275h-3.655v16.216h4.942V24.3c-.009-4.927-.018-14.336 0-14.705zM137.328 20.512c-2.252 0-3.825-1.68-3.825-4.083 0-2.425 1.573-4.12 3.825-4.12 2.254 0 3.827 1.695 3.827 4.12 0 2.366-1.61 4.083-3.827 4.083zm8.293 3.788c-.008-4.928-.018-14.337 0-14.706-.049-1.009-.861-1.275-1.287-1.275l-3.407.011v1.248c-1.115-1.11-2.585-1.672-4.379-1.672-4.488 0-7.871 3.664-7.871 8.523 0 4.857 3.383 8.52 7.871 8.52 1.809 0 3.311-.595 4.478-1.767l.007.207h.013c.114.896.847 1.144 1.238 1.147h3.338l-.001-.236zM82.828 20.512c-2.252 0-3.826-1.679-3.826-4.084 0-2.425 1.574-4.119 3.826-4.119 2.253 0 3.825 1.694 3.825 4.12 0 2.366-1.609 4.083-3.825 4.083zm8.293-10.918c-.047-1.008-.862-1.275-1.288-1.275l-3.406.01v1.249c-1.116-1.11-2.585-1.672-4.378-1.672-4.488 0-7.872 3.664-7.872 8.522 0 4.859 3.384 8.52 7.872 8.52 1.808 0 3.31-.593 4.474-1.766l.01.207h.013c.115.895.845 1.143 1.237 1.146h3.338V24.3c-.008-4.927-.018-14.336 0-14.705zM64.19 20.489c-2.157 0-3.786-1.762-3.786-4.096 0-2.353 1.592-4.06 3.787-4.06 2.193 0 3.785 1.708 3.785 4.06 0 2.334-1.627 4.096-3.785 4.096zm8.624-16.91v-.072l-.004-.002c-.084-.871-.762-1.149-1.225-1.185l-3.711-.017v5.256c0 .704.024 1.459.045 2.06.001.063.004.123.006.182-.892-1.017-2.49-1.929-4.765-1.929-4.539 0-7.833 3.583-7.833 8.521 0 4.858 3.383 8.523 7.868 8.523 2.091 0 3.753-.901 4.679-1.936v.221c0 .775.459 1.248 1.265 1.302.192.01 3.441 0 3.441 0h.236V3.591a.07.07 0 0 1-.002-.013zM15.579 0c-1.703 0-3.089 1.4-3.089 3.123a3.056 3.056 0 0 0 3.089 3.09c1.751 0 3.123-1.357 3.123-3.09A3.127 3.127 0 0 0 15.58 0zM18.263 9.594c-.048-1.01-.861-1.275-1.287-1.275h-3.655v16.216h4.943V24.3c-.009-4.927-.019-14.336 0-14.705z" fill="#ffffff"/>
      </g>
      <defs>
        <clipPath id="a"><path fill="#fff" d="M0 0h145.688v40H0z"/></clipPath>
      </defs>
    </g>
  </g>
</svg>
